------------------------------:TPB IS BENEDICTION TO ME :--------------------------


Screen Link :---
 
http://www.desiupload.com/show.php/872822_DesiHindiHiddenHotCoupleUnseenSexthumb.jpg.html


General Info :---

Format                           : CDXA/MPEG-PS
File size                        : 313 MiB
Duration                         : 32mn 10s
Overall bit rate                 : 1 412 Kbps

Video
ID                               : 224 (0xE0)
Format                           : MPEG Video
Format version                   : Version 1
Format settings, BVOP            : Yes
Format settings, Matrix          : Default
Duration                         : 32mn 10s
Bit rate mode                    : Constant
Bit rate                         : 1 116 Kbps
Width                            : 352 pixels
Height                           : 288 pixels
Display aspect ratio             : 4:3
Frame rate                       : 25.000 fps
Standard                         : PAL
Color space                      : YUV
Bit depth                        : 8 bits
Scan type                        : Progressive
Compression mode                 : Lossy
Bits/(Pixel*Frame)               : 0.440
Stream size                      : 257 MiB (82%)

Audio
ID                               : 192 (0xC0)
Format                           : MPEG Audio
Format version                   : Version 1
Format profile                   : Layer 2
Duration                         : 30mn 58s
Bit rate mode                    : Constant

Bit rate                         : 224 Kbps
Channel(s)                       : 2 channels
Sampling rate                    : 44.1 KHz
Compression mode                 : Lossy
Delay relative to video          : -231ms
Stream size                      : 49.6 MiB (16%)



                                 Dedicated To Ekarth


------------------------------:TPB IS BENEDICTION TO ME :--------------------------



